<?xml version="1.0" encoding="UTF-8" standalone="no"?>
<!-- Created with Inkscape (http://www.inkscape.org/) -->

<svg
   width="30.691626mm"
   height="30.691628mm"
   viewBox="0 0 30.691626 30.691628"
   version="1.1"
   id="svg1"
   xml:space="preserve"
   xmlns="http://www.w3.org/2000/svg"
   xmlns:svg="http://www.w3.org/2000/svg"><defs
     id="defs1" /><g
     id="layer1"
     transform="translate(-72.716454,-129.27139)"><g
       transform="matrix(0.264583,0,0,0.264583,104.936,148.5)"
       id="g2"><g
         style="fill:#000000;stroke:none"
         id="g1"
         transform="translate(-165.76377,-258.10198)" /><path
         d="m -10.174836,43.324877 h -3.2 c -0.221,0 -0.4,-0.179 -0.4,-0.4 v -7.6 h 3.9999998 v 7.6 c 0,0.221 -0.179,0.4 -0.3999998,0.4 z m -12,0 h -3.2 c -0.221,0 -0.4,-0.179 -0.4,-0.4 v -3.6 h 3.6 c 0.221,0 0.4,0.179 0.4,0.4 v 3.2 c 0,0.221 -0.179,0.4 -0.4,0.4 z m -12,0 h -7.2 c -0.2209,0 -0.4,-0.179 -0.4,-0.4 v -3.2 c 0,-0.221 -0.1791,-0.4 -0.4,-0.4 h -3.2 c -0.2209,0 -0.4,-0.179 -0.4,-0.4 v -7.2 c 0,-0.221 0.1791,-0.4 0.4,-0.4 h 3.2 c 0.2209,0 0.4,-0.179 0.4,-0.4 v -15.2 c 0,-0.221 -0.1791,-0.4 -0.4,-0.4 h -3.6 v -8 h 19.6 c 0.221,0 0.4,-0.1791 0.4,-0.4 v -3.6 h 3.6 c 0.221,0 0.4,0.1791 0.4,0.4 v 15.2 c 0,0.221 0.179,0.4 0.4,0.4 h 7.2 c 0.221,0 0.4,-0.179 0.4,-0.4 v -3.2 c 0,-0.221 -0.179,-0.4 -0.4,-0.4 h -3.2 c -0.221,0 -0.4,-0.179 -0.4,-0.4 v -7.2 c 0,-0.2209 0.179,-0.4 0.4,-0.4 h 3.6 v 3.6 c 0,0.2209 0.179,0.4 0.4,0.4 h 7.1999998 c 0.221,0 0.4,0.179 0.4,0.4 v 3.2 c 0,0.221 -0.179,0.4 -0.4,0.4 h -3.2 c -0.221,0 -0.4,0.179 -0.4,0.4 v 3.2 c 0,0.221 0.179,0.4 0.4,0.4 h 3.2 c 0.221,0 0.4,0.179 0.4,0.4 v 7.2 c 0,0.221 -0.179,0.4 -0.4,0.4 h -3.2 c -0.221,0 -0.4,-0.179 -0.4,-0.4 v -3.2 c 0,-0.221 -0.179,-0.4 -0.3999998,-0.4 h -11.2 c -0.221,0 -0.4,0.179 -0.4,0.4 v 3.2 c 0,0.221 0.179,0.4 0.4,0.4 h 7.2 c 0.221,0 0.4,0.179 0.4,0.4 v 7.6 h -12 v -3.6 c 0,-0.221 -0.179,-0.4 -0.4,-0.4 h -7.2 c -0.221,0 -0.4,-0.179 -0.4,-0.4 v -3.2 c 0,-0.221 -0.179,-0.4 -0.4,-0.4 h -3.2 c -0.221,0 -0.4,0.179 -0.4,0.4 v 7.2 c 0,0.221 0.179,0.4 0.4,0.4 h 3.2 c 0.221,0 0.4,0.179 0.4,0.4 v 7.2 c 0,0.221 -0.179,0.4 -0.4,0.4 z m -16,0 h -3.2 c -0.2209,0 -0.4,-0.179 -0.4,-0.4 v -7.2 c 0,-0.221 0.1791,-0.4 0.4,-0.4 h 3.2 c 0.2209,0 0.4,0.179 0.4,0.4 v 7.2 c 0,0.221 -0.1791,0.4 -0.4,0.4 z m -8,0 h -3.2 c -0.2209,0 -0.4,-0.179 -0.4,-0.4 v -3.2 c 0,-0.221 -0.1791,-0.4 -0.4,-0.4 h -7.2 c -0.2209,0 -0.4,0.179 -0.4,0.4 v 3.2 c 0,0.221 -0.1791,0.4 -0.4,0.4 h -7.2 c -0.2209,0 -0.4,-0.179 -0.4,-0.4 v -11.6 h 4 v 3.6 c 0,0.221 0.1791,0.4 0.4,0.4 h 7.2 c 0.2209,0 0.4,-0.179 0.4,-0.4 v -3.2 c 0,-0.221 0.1791,-0.4 0.4,-0.4 h 3.2 c 0.2209,0 0.4,0.179 0.4,0.4 v 3.2 c 0,0.221 0.1791,0.4 0.4,0.4 h 3.2 c 0.2209,0 0.4,0.179 0.4,0.4 v 7.2 c 0,0.221 -0.1791,0.4 -0.4,0.4 z m -28,0 h -3.2 c -0.2209,0 -0.4,-0.179 -0.4,-0.4 v -7.2 c 0,-0.221 0.1791,-0.4 0.4,-0.4 h 3.6 v 7.6 c 0,0.221 -0.1791,0.4 -0.4,0.4 z m -8,0 h -27.200004 c -0.2209,0 -0.4,-0.179 -0.4,-0.4 v -27.2 c 0,-0.221 0.1791,-0.4 0.4,-0.4 h 27.200004 c 0.2209,0 0.4,0.179 0.4,0.4 v 27.2 c 0,0.221 -0.1791,0.4 -0.4,0.4 z m 68,-4 h -3.2 c -0.221,0 -0.4,-0.179 -0.4,-0.4 v -3.2 c 0,-0.221 0.179,-0.4 0.4,-0.4 h 3.6 v 4 z m -71.6,-0.4 v -19.2 c 0,-0.221 -0.1791,-0.4 -0.4,-0.4 h -19.200004 c -0.2209,0 -0.4,0.179 -0.4,0.4 v 19.2 c 0,0.221 0.1791,0.4 0.4,0.4 h 19.200004 c 0.2209,0 0.4,-0.179 0.4,-0.4 z m 91.5999998,-3.6 h -3.6 v -3.6 c 0,-0.221 0.179,-0.4 0.4,-0.4 h 3.2 c 0.221,0 0.4,0.179 0.4,0.4 v 3.2 c 0,0.221 -0.179,0.4 -0.4,0.4 z m -75.9999998,0 h -3.6 v -3.6 c 0,-0.221 -0.1791,-0.4 -0.4,-0.4 h -3.2 c -0.2209,0 -0.4,-0.179 -0.4,-0.4 v -3.2 c 0,-0.221 0.1791,-0.4 0.4,-0.4 h 3.2 c 0.2209,0 0.4,-0.179 0.4,-0.4 v -7.6 h 3.6 c 0.2209,0 0.4,0.179 0.4,0.4 v 3.2 c 0,0.221 0.1791,0.4 0.4,0.4 h 11.2 c 0.2209,0 0.4,-0.179 0.4,-0.4 v -3.2 c 0,-0.221 0.1791,-0.4 0.4,-0.4 h 3.6 v 7.6 c 0,0.221 -0.1791,0.4 -0.4,0.4 h -3.2 c -0.2209,0 -0.4,0.179 -0.4,0.4 v 3.2 c 0,0.221 -0.1791,0.4 -0.4,0.4 h -3.6 v -3.6 c 0,-0.221 -0.1791,-0.4 -0.4,-0.4 h -3.2 c -0.2209,0 -0.4,0.179 -0.4,0.4 v 3.6 h -3.6 c -0.2209,0 -0.4,0.179 -0.4,0.4 v 3.2 c 0,0.221 -0.1791,0.4 -0.4,0.4 z m -20.000004,0 h -11.2 c -0.2209,0 -0.4,-0.179 -0.4,-0.4 v -11.2 c 0,-0.221 0.1791,-0.4 0.4,-0.4 h 11.2 c 0.2209,0 0.4,0.179 0.4,0.4 v 11.2 c 0,0.221 -0.1791,0.4 -0.4,0.4 z m 56.000004,-8 h -15.2 c -0.2209,0 -0.4,-0.179 -0.4,-0.4 v -3.2 c 0,-0.221 0.1791,-0.4 0.4,-0.4 h 3.2 c 0.2209,0 0.4,-0.179 0.4,-0.4 v -7.2 c 0,-0.221 0.1791,-0.4 0.4,-0.4 h 3.2 c 0.2209,0 0.4,-0.179 0.4,-0.4 v -3.6 h 3.6 c 0.2209,0 0.4,0.179 0.4,0.4 v 3.2 c 0,0.221 0.1791,0.4 0.4,0.4 h 3.6 v 3.6 c 0,0.221 -0.1791,0.4 -0.4,0.4 h -7.2 c -0.2209,0 -0.4,0.179 -0.4,0.4 v 3.2 c 0,0.221 0.1791,0.4 0.4,0.4 h 7.2 c 0.2209,0 0.4,0.179 0.4,0.4 v 3.2 c 0,0.221 -0.1791,0.4 -0.4,0.4 z m 20.4,-4.4 v -11.2 c 0,-0.221 -0.179,-0.4 -0.4,-0.4 h -11.2 c -0.221,0 -0.4,0.179 -0.4,0.4 v 11.2 c 0,0.221 0.179,0.4 0.4,0.4 h 11.2 c 0.221,0 0.4,-0.179 0.4,-0.4 z m -4.4,-3.6 h -3.2 c -0.221,0 -0.4,-0.179 -0.4,-0.4 v -3.2 c 0,-0.221 0.179,-0.4 0.4,-0.4 h 3.2 c 0.221,0 0.4,0.179 0.4,0.4 v 3.2 c 0,0.221 -0.179,0.4 -0.4,0.4 z m -32,0 h -3.6 v -3.6 c 0,-0.221 -0.1791,-0.4 -0.4,-0.4 h -7.2 c -0.2209,0 -0.4,-0.179 -0.4,-0.4 v -15.2 c 0,-0.2209 -0.1791,-0.4 -0.4,-0.4 h -7.6 v -4 h 7.6 c 0.2209,0 0.4,-0.1791 0.4,-0.4 v -3.6 h 3.6 c 0.2209,0 0.4,-0.1791 0.4,-0.4 v -3.2 c 0,-0.2209 0.1791,-0.4 0.4,-0.4 h 3.6 v 7.6 c 0,0.2209 -0.1791,0.4 -0.4,0.4 h -3.2 c -0.2209,0 -0.4,0.1791 -0.4,0.4 v 3.2 c 0,0.2209 0.1791,0.4 0.4,0.4 h 3.2 c 0.2209,0 0.4,0.1791 0.4,0.4 v 3.6 h -3.6 c -0.2209,0 -0.4,0.1791 -0.4,0.4 v 3.2 c 0,0.2209 0.1791,0.4 0.4,0.4 h 3.2 c 0.2209,0 0.4,-0.1791 0.4,-0.4 v -3.6 h 3.6 c 0.2209,0 0.4,0.1791 0.4,0.4 v 3.2 c 0,0.2209 0.1791,0.4 0.4,0.4 h 7.6 v 4 h -7.6 c -0.2209,0 -0.4,0.179 -0.4,0.4 v 7.2 c 0,0.221 -0.1791,0.4 -0.4,0.4 z m -24,0 h -3.2 c -0.2209,0 -0.4,-0.179 -0.4,-0.4 v -7.2 c 0,-0.221 -0.1791,-0.4 -0.4,-0.4 h -7.2 c -0.2209,0 -0.4,-0.1791 -0.4,-0.4 v -3.6 h 11.6 c 0.2209,0 0.4,-0.1791 0.4,-0.4 v -3.2 c 0,-0.2209 -0.1791,-0.4 -0.4,-0.4 h -3.2 c -0.2209,0 -0.4,-0.1791 -0.4,-0.4 v -3.2 c 0,-0.2209 -0.1791,-0.4 -0.4,-0.4 h -3.6 v -3.6 c 0,-0.2209 -0.1791,-0.4 -0.4,-0.4 h -3.2 c -0.2209,0 -0.4,0.1791 -0.4,0.4 v 3.6 h -4.000004 v -11.6 c 0,-0.2209 -0.1791,-0.4 -0.4,-0.4 h -3.6 v -3.6 c 0,-0.2209 -0.1791,-0.4 -0.4,-0.4 h -7.6 v -3.6 c 0,-0.2209 0.1791,-0.4 0.4,-0.4 h 7.2 c 0.2209,0 0.4,-0.1791 0.4,-0.4 v -3.6 h 3.6 c 0.2209,0 0.4,0.1791 0.4,0.4 v 7.2 c 0,0.2209 0.1791,0.4 0.4,0.4 h 11.200004 c 0.2209,0 0.4,0.1791 0.4,0.4 v 3.2 c 0,0.2209 -0.1791,0.4 -0.4,0.4 h -7.2 c -0.2209,0 -0.4,0.1791 -0.4,0.4 v 3.2 c 0,0.2209 0.1791,0.4 0.4,0.4 h 7.2 c 0.2209,0 0.4,0.1791 0.4,0.4 v 3.2 c 0,0.2209 0.1791,0.4 0.4,0.4 h 3.6 v 3.6 c 0,0.2209 0.1791,0.4 0.4,0.4 h 3.6 v 3.6 c 0,0.2209 0.1791,0.4 0.4,0.4 h 3.2 c 0.2209,0 0.4,0.1791 0.4,0.4 v 11.2 c 0,0.221 -0.1791,0.4 -0.4,0.4 h -3.2 c -0.2209,0 -0.4,-0.179 -0.4,-0.4 v -3.2 c 0,-0.221 -0.1791,-0.4 -0.4,-0.4 h -3.2 c -0.2209,0 -0.4,0.179 -0.4,0.4 v 7.6 z m -20.000004,-8 h -7.2 c -0.2209,0 -0.4,-0.1791 -0.4,-0.4 v -3.2 c 0,-0.2209 0.1791,-0.4 0.4,-0.4 h 7.6 v 3.6 c 0,0.2209 -0.1791,0.4 -0.4,0.4 z m -12,0 h -3.2 c -0.2209,0 -0.4,-0.1791 -0.4,-0.4 v -3.2 c 0,-0.2209 0.1791,-0.4 0.4,-0.4 h 3.2 c 0.2209,0 0.4,0.1791 0.4,0.4 v 3.2 c 0,0.2209 -0.1791,0.4 -0.4,0.4 z m 112.0000038,-4 h -7.5999998 v -7.6 c 0,-0.2209 0.179,-0.4 0.4,-0.4 h 3.2 c 0.2209998,0 0.3999998,-0.1791 0.3999998,-0.4 v -3.6 h 3.6 c 0.221,0 0.4,0.1791 0.4,0.4 v 11.2 c 0,0.2209 -0.179,0.4 -0.4,0.4 z m -39.9999998,0 h -7.6 v -3.6 c 0,-0.2209 0.1791,-0.4 0.4,-0.4 h 7.2 c 0.2209,0 0.4,0.1791 0.4,0.4 v 3.6 z m -52,0 h -7.600004 v -7.6 c 0,-0.2209 0.1791,-0.4 0.4,-0.4 h 3.6 v 3.6 c 0,0.2209 0.1791,0.4 0.4,0.4 h 3.600004 v 4 z m 72,-4 h -7.2 c -0.221,0 -0.4,-0.1791 -0.4,-0.4 v -3.2 c 0,-0.2209 -0.179,-0.4 -0.4,-0.4 h -3.2 c -0.221,0 -0.4,-0.1791 -0.4,-0.4 v -7.2 c 0,-0.2209 0.179,-0.4 0.4,-0.4 h 3.2 c 0.221,0 0.4,0.1791 0.4,0.4 v 3.2 c 0,0.2209 0.179,0.4 0.4,0.4 h 7.2 c 0.221,0 0.4,0.1791 0.4,0.4 v 7.6 z m -68,0 h -3.6 v -4 h 4 v 3.6 c 0,0.2209 -0.1791,0.4 -0.4,0.4 z m -24.000004,0 h -3.2 c -0.2209,0 -0.4,-0.1791 -0.4,-0.4 v -3.2 c 0,-0.2209 0.1791,-0.4 0.4,-0.4 h 3.2 c 0.2209,0 0.4,0.1791 0.4,0.4 v 3.2 c 0,0.2209 -0.1791,0.4 -0.4,0.4 z m 100.000004,-4 h -3.2 c -0.221,0 -0.4,-0.1791 -0.4,-0.4 v -3.2 c 0,-0.2209 0.179,-0.4 0.4,-0.4 h 3.2 c 0.221,0 0.4,0.1791 0.4,0.4 v 3.2 c 0,0.2209 -0.179,0.4 -0.4,0.4 z m -28,0 h -3.2 c -0.2209,0 -0.4,-0.1791 -0.4,-0.4 v -3.6 h 4 v 3.6 c 0,0.2209 -0.1791,0.4 -0.4,0.4 z m -8,0 h -3.2 c -0.2209,0 -0.4,-0.1791 -0.4,-0.4 v -3.6 h 4 v 3.6 c 0,0.2209 -0.1791,0.4 -0.4,0.4 z m -56.000004,0 h -3.2 c -0.2209,0 -0.4,-0.1791 -0.4,-0.4 v -3.6 h 4 v 3.6 c 0,0.2209 -0.1791,0.4 -0.4,0.4 z m 100.000004,-4 h -3.2 c -0.221,0 -0.4,-0.1791 -0.4,-0.4 v -7.2 c 0,-0.2209 -0.179,-0.4 -0.4,-0.4 h -3.2 c -0.221,0 -0.4,0.1791 -0.4,0.4 v 3.2 c 0,0.2209 -0.179,0.4 -0.4,0.4 h -7.2 c -0.221,0 -0.4,-0.1791 -0.4,-0.4 v -3.2 c 0,-0.2209 -0.179,-0.4 -0.4,-0.4 h -15.6 v -3.6 c 0,-0.2209 -0.1791,-0.4 -0.4,-0.4 h -3.6 v -3.6 c 0,-0.2209 0.1791,-0.4 0.4,-0.4 h 7.2 c 0.2209,0 0.4,-0.1791 0.4,-0.4 v -3.2 c 0,-0.2209 0.179,-0.4 0.4,-0.4 h 7.6 v 3.6 c 0,0.2209 -0.179,0.4 -0.4,0.4 h -3.2 c -0.221,0 -0.4,0.1791 -0.4,0.4 v 3.2 c 0,0.2209 0.179,0.4 0.4,0.4 h 27.1999998 c 0.221,0 0.4,0.1791 0.4,0.4 v 3.2 c 0,0.2209 -0.179,0.4 -0.4,0.4 h -3.2 c -0.221,0 -0.4,0.1791 -0.4,0.4 v 7.6 z m -32,0 h -3.6 v -8 h 4 v 7.6 c 0,0.2209 -0.1791,0.4 -0.4,0.4 z m -8,0 h -3.6 v -11.6 c 0,-0.2209 0.1791,-0.4 0.4,-0.4 h 7.6 v 4 h -3.6 c -0.2209,0 -0.4,0.1791 -0.4,0.4 v 7.6 z m -8,0 h -3.2 c -0.2209,0 -0.4,-0.1791 -0.4,-0.4 v -7.6 h 3.6 c 0.2209,0 0.4,0.1791 0.4,0.4 v 7.6 z m -24,0 h -3.6 v -7.6 c 0,-0.2209 0.1791,-0.4 0.4,-0.4 h 3.2 c 0.2209,0 0.4,-0.1791 0.4,-0.4 v -3.2 c 0,-0.2209 -0.1791,-0.4 -0.4,-0.4 h -3.2 c -0.2209,0 -0.4,-0.1791 -0.4,-0.4 v -3.6 h 7.6 c 0.2209,0 0.4,0.1791 0.4,0.4 v 3.2 c 0,0.2209 0.1791,0.4 0.4,0.4 h 3.6 v 8 h -7.6 c -0.2209,0 -0.4,0.1791 -0.4,0.4 v 3.6 z m -24.000004,0 h -3.6 v -3.6 c 0,-0.2209 -0.1791,-0.4 -0.4,-0.4 h -3.6 v -4 h 8 v 7.6 c 0,0.2209 -0.1791,0.4 -0.4,0.4 z m -8,0 h -7.2 c -0.2209,0 -0.4,-0.1791 -0.4,-0.4 v -15.2 c 0,-0.2209 0.1791,-0.4 0.4,-0.4 h 3.2 c 0.2209,0 0.4,0.1791 0.4,0.4 v 3.2 c 0,0.2209 0.1791,0.4 0.4,0.4 h 3.6 v 4 h -3.6 c -0.2209,0 -0.4,0.1791 -0.4,0.4 v 3.2 c 0,0.2209 0.1791,0.4 0.4,0.4 h 3.6 v 4 z m 52.000004,-8 h -3.6 v -4 h 3.6 c 0.2209,0 0.4,0.1791 0.4,0.4 v 3.6 z m -4,-4 h -7.6 v -3.6 c 0,-0.2209 0.1791,-0.4 0.4,-0.4 h 3.2 c 0.2209,0 0.4,-0.1791 0.4,-0.4 v -7.2 c 0,-0.2209 -0.1791,-0.4 -0.4,-0.4 h -3.6 v -8 h 3.6 c 0.2209,0 0.4,-0.1791 0.4,-0.4 v -3.2 c 0,-0.2209 0.1791,-0.4 0.4,-0.4 h 7.6 v 3.6 c 0,0.2209 -0.1791,0.4 -0.4,0.4 h -3.2 c -0.2209,0 -0.4,0.1791 -0.4,0.4 v 3.2 c 0,0.2209 0.1791,0.4 0.4,0.4 h 3.2 c 0.2209,0 0.4,0.1791 0.4,0.4 v 3.2 c 0,0.2209 -0.1791,0.4 -0.4,0.4 h -3.2 c -0.2209,0 -0.4,0.1791 -0.4,0.4 v 11.6 z m 59.9999998,-4 h -7.1999998 c -0.221,0 -0.4,-0.1791 -0.4,-0.4 v -3.2 c 0,-0.2209 -0.179,-0.4 -0.4,-0.4 h -3.6 v -3.6 c 0,-0.2209 -0.179,-0.4 -0.4,-0.4 h -7.2 c -0.221,0 -0.4,0.1791 -0.4,0.4 v 3.2 c 0,0.2209 -0.179,0.4 -0.4,0.4 h -3.6 v -3.6 c 0,-0.2209 -0.179,-0.4 -0.4,-0.4 h -7.2 c -0.221,0 -0.4,-0.1791 -0.4,-0.4 v -3.2 c 0,-0.2209 -0.1791,-0.4 -0.4,-0.4 h -3.6 v -3.6 c 0,-0.2209 0.1791,-0.4 0.4,-0.4 h 7.2 c 0.221,0 0.4,-0.1791 0.4,-0.4 v -3.2 c 0,-0.2209 0.179,-0.4 0.4,-0.4 h 11.2 c 0.221,0 0.4,0.1791 0.4,0.4 v 3.6 h -7.6 c -0.221,0 -0.4,0.1791 -0.4,0.4 v 3.2 c 0,0.2209 0.179,0.4 0.4,0.4 h 7.2 c 0.221,0 0.4,-0.1791 0.4,-0.4 v -3.6 h 4 v 3.6 c 0,0.2209 0.179,0.4 0.4,0.4 h 7.5999998 v 7.6 c 0,0.2209 0.179,0.4 0.4,0.4 h 3.2 c 0.221,0 0.4,0.1791 0.4,0.4 v 3.2 c 0,0.2209 -0.179,0.4 -0.4,0.4 z m -11.9999998,0 h -3.2 c -0.221,0 -0.4,-0.1791 -0.4,-0.4 v -3.2 c 0,-0.2209 0.179,-0.4 0.4,-0.4 h 3.6 v 3.6 c 0,0.2209 -0.179,0.4 -0.4,0.4 z m -32,0 h -11.2 c -0.2209,0 -0.4,-0.1791 -0.4,-0.4 v -3.2 c 0,-0.2209 0.1791,-0.4 0.4,-0.4 h 3.2 c 0.2209,0 0.4,-0.1791 0.4,-0.4 v -3.2 c 0,-0.2209 0.1791,-0.4 0.4,-0.4 h 3.2 c 0.2209,0 0.4,0.1791 0.4,0.4 v 3.2 c 0,0.2209 0.1791,0.4 0.4,0.4 h 3.2 c 0.2209,0 0.4,0.1791 0.4,0.4 v 3.2 c 0,0.2209 -0.1791,0.4 -0.4,0.4 z m -36,0 h -11.2 c -0.2209,0 -0.4,-0.1791 -0.4,-0.4 v -3.2 c 0,-0.2209 0.1791,-0.4 0.4,-0.4 h 3.2 c 0.2209,0 0.4,-0.1791 0.4,-0.4 v -3.6 h 3.6 c 0.2209,0 0.4,0.1791 0.4,0.4 v 3.2 c 0,0.2209 0.1791,0.4 0.4,0.4 h 3.2 c 0.2209,0 0.4,0.1791 0.4,0.4 v 3.6 z m 44,-4 h -3.2 c -0.2209,0 -0.4,-0.1791 -0.4,-0.4 v -7.6 h 4 v 7.6 c 0,0.2209 -0.1791,0.4 -0.4,0.4 z m -32,0 h -3.2 c -0.2209,0 -0.4,-0.1791 -0.4,-0.4 v -3.6 h 4 v 3.6 c 0,0.2209 -0.1791,0.4 -0.4,0.4 z m -32.000004,0 h -7.2 c -0.2209,0 -0.4,-0.1791 -0.4,-0.4 v -3.2 c 0,-0.2209 -0.1791,-0.4 -0.4,-0.4 h -3.6 v -3.6 c 0,-0.2209 0.1791,-0.4 0.4,-0.4 h 3.2 c 0.2209,0 0.4,-0.1791 0.4,-0.4 v -3.6 h 4 v 3.6 c 0,0.2209 0.1791,0.4 0.4,0.4 h 3.6 v 8 z m -12,0 h -3.2 c -0.2209,0 -0.4,-0.1791 -0.4,-0.4 v -3.2 c 0,-0.2209 0.1791,-0.4 0.4,-0.4 h 3.6 v 3.6 c 0,0.2209 -0.1791,0.4 -0.4,0.4 z m 40.000004,-4 h -7.2 c -0.2209,0 -0.4,-0.1791 -0.4,-0.4 v -3.6 h 3.6 c 0.2209,0 0.4,-0.1791 0.4,-0.4 v -7.6 h 7.6 c 0.2209,0 0.4,0.1791 0.4,0.4 v 3.6 h -3.6 c -0.2209,0 -0.4,0.1791 -0.4,0.4 v 7.6 z m -16,0 h -7.200004 c -0.2209,0 -0.4,-0.1791 -0.4,-0.4 v -3.2 c 0,-0.2209 -0.1791,-0.4 -0.4,-0.4 h -3.6 v -4 h 8.000004 v 3.6 c 0,0.2209 0.1791,0.4 0.4,0.4 h 3.2 c 0.2209,0 0.4,0.1791 0.4,0.4 v 3.6 z m 87.9999998,-4 h -3.6 v -4 h 3.6 c 0.221,0 0.4,0.1791 0.4,0.4 v 3.2 c 0,0.2209 -0.179,0.4 -0.4,0.4 z m -39.9999998,0 h -11.2 c -0.2209,0 -0.4,-0.1791 -0.4,-0.4 v -3.2 c 0,-0.2209 0.1791,-0.4 0.4,-0.4 h 11.2 c 0.2209,0 0.4,0.1791 0.4,0.4 v 3.6 z m -40,0 h -3.2 c -0.2209,0 -0.4,-0.1791 -0.4,-0.4 v -3.6 h 3.6 c 0.2209,0 0.4,0.1791 0.4,0.4 v 3.6 z m 76,-4 h -7.6 v -3.6 c 0,-0.2209 0.179,-0.4 0.4,-0.4 h 7.2 c 0.2209998,0 0.3999998,0.1791 0.3999998,0.4 v 3.6 z m -80,0 h -7.6 v -3.6 c 0,-0.2209 0.1791,-0.4 0.4,-0.4 h 7.6 v 4 z m -16.000004,0 h -3.6 v -3.6 c 0,-0.2209 0.1791,-0.4 0.4,-0.4 h 3.2 c 0.2209,0 0.4,0.1791 0.4,0.4 v 3.6 z m -8,0 h -7.2 c -0.2209,0 -0.4,-0.1791 -0.4,-0.4 v -3.2 c 0,-0.2209 0.1791,-0.4 0.4,-0.4 h 7.2 c 0.2209,0 0.4,0.1791 0.4,0.4 v 3.6 z m 76.000004,-4 h -3.2 c -0.2209,0 -0.4,-0.1791 -0.4,-0.4 v -7.6 h 3.6 c 0.2209,0 0.4,0.1791 0.4,0.4 v 7.2 c 0,0.2209 -0.1791,0.4 -0.4,0.4 z m -8,0 h -7.2 c -0.2209,0 -0.4,-0.1791 -0.4,-0.4 v -3.6 h 3.6 c 0.2209,0 0.4,-0.1791 0.4,-0.4 v -3.2 c 0,-0.2209 0.1791,-0.4 0.4,-0.4 h 3.6 v 7.6 c 0,0.2209 -0.1791,0.4 -0.4,0.4 z m -12,0 h -3.6 v -4 h 4 v 3.6 c 0,0.2209 -0.1791,0.4 -0.4,0.4 z m -24,0 h -7.6 v -15.6 c 0,-0.2209 0.1791,-0.4 0.4,-0.4 h 3.6 v 3.6 c 0,0.2209 0.1791,0.4 0.4,0.4 h 3.2 c 0.2209,0 0.4,0.1791 0.4,0.4 v 3.6 h -3.6 c -0.2209,0 -0.4,0.1791 -0.4,0.4 v 3.2 c 0,0.2209 0.1791,0.4 0.4,0.4 h 3.6 v 4 z m 75.9999998,-4 H -33.374836 c -0.221,0 -0.4,-0.1791 -0.4,-0.4 v -27.2 c 0,-0.2209 0.179,-0.4 0.4,-0.4 h 27.1999998 c 0.221,0 0.4,0.1791 0.4,0.4 v 27.2 c 0,0.2209 -0.179,0.4 -0.4,0.4 z m -47.9999998,0 h -3.6 v -4 h 3.6 c 0.2209,0 0.4,0.1791 0.4,0.4 v 3.6 z m -8,0 h -3.2 c -0.2209,0 -0.4,-0.1791 -0.4,-0.4 v -3.2 c 0,-0.2209 0.1791,-0.4 0.4,-0.4 h 3.6 v 4 z m -8,0 h -3.2 c -0.2209,0 -0.4,-0.1791 -0.4,-0.4 v -7.2 c 0,-0.2209 -0.1791,-0.4 -0.4,-0.4 h -3.2 c -0.2209,0 -0.4,-0.1791 -0.4,-0.4 v -3.6 h 7.6 c 0.2209,0 0.4,0.1791 0.4,0.4 v 11.2 c 0,0.2209 -0.1791,0.4 -0.4,0.4 z m -8,0 h -3.6 v -4 h 3.6 c 0.2209,0 0.4,0.1791 0.4,0.4 v 3.2 c 0,0.2209 -0.1791,0.4 -0.4,0.4 z m -16,0 h -27.200004 c -0.2209,0 -0.4,-0.1791 -0.4,-0.4 v -27.2 c 0,-0.2209 0.1791,-0.4 0.4,-0.4 h 27.200004 c 0.2209,0 0.4,0.1791 0.4,0.4 v 27.2 c 0,0.2209 -0.1791,0.4 -0.4,0.4 z m 84.3999998,-4.4 v -19.2 c 0,-0.2209 -0.179,-0.4 -0.3999998,-0.4 h -19.2 c -0.221,0 -0.4,0.1791 -0.4,0.4 v 19.2 c 0,0.2209 0.179,0.4 0.4,0.4 h 19.2 c 0.2209998,0 0.3999998,-0.1791 0.3999998,-0.4 z m -32.3999998,0.4 h -3.6 v -4 h 4 v 4 z m -16,0 h -3.6 v -3.6 c 0,-0.2209 -0.1791,-0.4 -0.4,-0.4 h -3.2 c -0.2209,0 -0.4,-0.1791 -0.4,-0.4 v -7.2 c 0,-0.2209 0.1791,-0.4 0.4,-0.4 h 7.2 c 0.2209,0 0.4,0.1791 0.4,0.4 v 3.2 c 0,0.2209 0.1791,0.4 0.4,0.4 h 7.2 c 0.2209,0 0.4,-0.1791 0.4,-0.4 v -3.6 h 4 v 8 h -11.6 c -0.2209,0 -0.4,0.1791 -0.4,0.4 v 3.6 z m -39.6,-0.4 v -19.2 c 0,-0.2209 -0.1791,-0.4 -0.4,-0.4 h -19.200004 c -0.2209,0 -0.4,0.1791 -0.4,0.4 v 19.2 c 0,0.2209 0.1791,0.4 0.4,0.4 h 19.200004 c 0.2209,0 0.4,-0.1791 0.4,-0.4 z m 83.6,-3.6 h -11.2 c -0.221,0 -0.4,-0.1791 -0.4,-0.4 v -11.2 c 0,-0.2209 0.179,-0.4 0.4,-0.4 h 11.2 c 0.221,0 0.4,0.1791 0.4,0.4 v 11.2 c 0,0.2209 -0.179,0.4 -0.4,0.4 z m -24,0 h -3.6 v -3.6 c 0,-0.2209 0.1791,-0.4 0.4,-0.4 h 3.2 c 0.2209,0 0.4,0.1791 0.4,0.4 v 3.2 c 0,0.2209 -0.1791,0.4 -0.4,0.4 z m -64.000004,0 h -11.2 c -0.2209,0 -0.4,-0.1791 -0.4,-0.4 v -11.2 c 0,-0.2209 0.1791,-0.4 0.4,-0.4 h 11.2 c 0.2209,0 0.4,0.1791 0.4,0.4 v 11.2 c 0,0.2209 -0.1791,0.4 -0.4,0.4 z m 24.000004,-4 h -7.6 v -3.6 c 0,-0.2209 -0.1791,-0.4 -0.4,-0.4 h -3.2 c -0.2209,0 -0.4,-0.1791 -0.4,-0.4 v -7.2 c 0,-0.2209 0.1791,-0.4 0.4,-0.4 h 3.6 v 3.6 c 0,0.2209 0.1791,0.4 0.4,0.4 h 7.6 v 8 z m 40,-4 h -7.6 v -4 h 7.6 c 0.2209,0 0.4,0.1791 0.4,0.4 v 3.2 c 0,0.2209 -0.1791,0.4 -0.4,0.4 z m -12,0 h -3.2 c -0.2209,0 -0.4,-0.1791 -0.4,-0.4 v -3.2 c 0,-0.2209 0.1791,-0.4 0.4,-0.4 h 3.6 v 4 z m 4,-4 h -3.6 v -7.6 c 0,-0.2209 0.1791,-0.4 0.4,-0.4 h 7.2 c 0.2209,0 0.4,0.1791 0.4,0.4 v 3.2 c 0,0.2209 -0.1791,0.4 -0.4,0.4 h -3.2 c -0.2209,0 -0.4,0.1791 -0.4,0.4 v 3.6 z m -12,0 h -3.2 c -0.2209,0 -0.4,-0.1791 -0.4,-0.4 v -7.2 c 0,-0.2209 0.1791,-0.4 0.4,-0.4 h 3.2 c 0.2209,0 0.4,0.1791 0.4,0.4 v 7.2 c 0,0.2209 -0.1791,0.4 -0.4,0.4 z m -8,0 h -11.6 v -4 h 3.6 c 0.2209,0 0.4,-0.1791 0.4,-0.4 v -3.2 c 0,-0.2209 0.1791,-0.4 0.4,-0.4 h 3.2 c 0.2209,0 0.4,0.1791 0.4,0.4 v 3.2 c 0,0.2209 0.1791,0.4 0.4,0.4 h 3.2 c 0.2209,0 0.4,0.1791 0.4,0.4 v 3.2 c 0,0.2209 -0.1791,0.4 -0.4,0.4 z m -12,-4 h -7.6 v -3.6 c 0,-0.2209 0.1791,-0.4 0.4,-0.4 h 7.2 c 0.2209,0 0.4,0.1791 0.4,0.4 v 3.6 z"
         id="path1"
         style="fill:#3b47f5;fill-opacity:1;stroke:none" /></g></g></svg>
